<svg width="13" height="13" viewBox="0 0 13 13" fill="none" xmlns="http://www.w3.org/2000/svg">
<path d="M0.315857 12.2858H2.76886L10.0036 5.05106L7.55059 2.59806L0.315857 9.83279V12.2858ZM1.62413 10.3757L7.55059 4.44926L8.1524 5.05106L2.22593 10.9775H1.62413V10.3757ZM10.3699 0.701064C10.3094 0.640423 10.2375 0.592313 10.1584 0.559487C10.0793 0.526662 9.99442 0.509766 9.90875 0.509766C9.82308 0.509766 9.73825 0.526662 9.65912 0.559487C9.57999 0.592313 9.5081 0.640423 9.44759 0.701064L8.25052 1.89813L10.7035 4.35114L11.9006 3.15407C11.9612 3.09355 12.0093 3.02167 12.0422 2.94254C12.075 2.86341 12.0919 2.77858 12.0919 2.69291C12.0919 2.60723 12.075 2.5224 12.0422 2.44327C12.0093 2.36414 11.9612 2.29226 11.9006 2.23174L10.3699 0.701064Z" fill="black"/>
</svg>
