<svg width="20" height="21" viewBox="0 0 20 21" fill="none" xmlns="http://www.w3.org/2000/svg">
<path d="M9.9751 18.1082C5.5651 18.1082 1.9751 14.5182 1.9751 10.1082C1.9751 5.69815 5.5651 2.10815 9.9751 2.10815C14.3851 2.10815 17.9751 5.69815 17.9751 10.1082C17.9751 14.5182 14.3851 18.1082 9.9751 18.1082ZM9.9751 0.108154C8.66188 0.108154 7.36152 0.366812 6.14826 0.869359C4.93501 1.37191 3.83262 2.1085 2.90403 3.03709C1.02867 4.91245 -0.0249023 7.45599 -0.0249023 10.1082C-0.0249023 12.7603 1.02867 15.3039 2.90403 17.1792C3.83262 18.1078 4.93501 18.8444 6.14826 19.347C7.36152 19.8495 8.66188 20.1082 9.9751 20.1082C12.6273 20.1082 15.1708 19.0546 17.0462 17.1792C18.9215 15.3039 19.9751 12.7603 19.9751 10.1082C19.9751 8.79494 19.7164 7.49458 19.2139 6.28132C18.7113 5.06806 17.9748 3.96567 17.0462 3.03709C16.1176 2.1085 15.0152 1.37191 13.8019 0.869359C12.5887 0.366812 11.2883 0.108154 9.9751 0.108154Z" fill="white"/>
<path d="M7.92374 13.694V6.52599C7.92389 6.43631 7.94816 6.34832 7.994 6.27124C8.03985 6.19416 8.10558 6.13082 8.18431 6.08788C8.26305 6.04493 8.35188 6.02396 8.44151 6.02714C8.53113 6.03033 8.61825 6.05756 8.69374 6.10599L14.2697 9.689C14.3403 9.73423 14.3984 9.7965 14.4387 9.87007C14.4789 9.94364 14.5 10.0261 14.5 10.11C14.5 10.1938 14.4789 10.2764 14.4387 10.3499C14.3984 10.4235 14.3403 10.4858 14.2697 10.531L8.69374 14.115C8.61825 14.1634 8.53113 14.1907 8.44151 14.1938C8.35188 14.197 8.26305 14.1761 8.18431 14.1331C8.10558 14.0902 8.03985 14.0268 7.994 13.9498C7.94816 13.8727 7.92389 13.7837 7.92374 13.694Z" fill="white"/>
</svg>
