<svg width="20" height="21" viewBox="0 0 20 21" fill="none" xmlns="http://www.w3.org/2000/svg">
<path d="M10 18.6226C5.59 18.6226 2 15.0326 2 10.6226C2 6.21256 5.59 2.62256 10 2.62256C14.41 2.62256 18 6.21256 18 10.6226C18 15.0326 14.41 18.6226 10 18.6226ZM10 0.622559C8.68678 0.622559 7.38642 0.881216 6.17317 1.38376C4.95991 1.88631 3.85752 2.62291 2.92893 3.55149C1.05357 5.42685 0 7.97039 0 10.6226C0 13.2747 1.05357 15.8183 2.92893 17.6936C3.85752 18.6222 4.95991 19.3588 6.17317 19.8614C7.38642 20.3639 8.68678 20.6226 10 20.6226C12.6522 20.6226 15.1957 19.569 17.0711 17.6936C18.9464 15.8183 20 13.2747 20 10.6226C20 9.30934 19.7413 8.00898 19.2388 6.79572C18.7362 5.58247 17.9997 4.48008 17.0711 3.55149C16.1425 2.62291 15.0401 1.88631 13.8268 1.38376C12.6136 0.881216 11.3132 0.622559 10 0.622559ZM11 5.62256H9V9.62256H5V11.6226H9V15.6226H11V11.6226H15V9.62256H11V5.62256Z" fill="white"/>
</svg>
